<mxfile host="app.diagrams.net" modified="2022-06-29T09:45:16.471Z" agent="5.0 (Macintosh)" etag="4RgzSzyM1CDe6QEX0yTr" version="20.0.1" type="github">
  <diagram id="zRpgoigiP1IDF4QAEYAz" name="Page-1">
    <mxGraphModel dx="1954" dy="683" grid="1" gridSize="10" guides="1" tooltips="1" connect="1" arrows="1" fold="1" page="1" pageScale="1" pageWidth="827" pageHeight="1169" background="none" math="0" shadow="1">
      <root>
        <mxCell id="0" />
        <mxCell id="1" parent="0" />
        <mxCell id="xNPf7Q8VACPQxdcIyB9K-5" value="" style="rounded=0;whiteSpace=wrap;html=1;fillColor=#FFBE73;strokeColor=#000000;shadow=1;" parent="1" vertex="1">
          <mxGeometry x="284" y="135" width="20" height="50" as="geometry" />
        </mxCell>
        <mxCell id="xNPf7Q8VACPQxdcIyB9K-7" value="" style="rounded=0;whiteSpace=wrap;html=1;fillColor=#FFB366;shadow=1;" parent="1" vertex="1">
          <mxGeometry x="70" y="120" width="20" height="480" as="geometry" />
        </mxCell>
        <mxCell id="xNPf7Q8VACPQxdcIyB9K-15" value="" style="rounded=0;whiteSpace=wrap;html=1;fillColor=#FFBE73;shadow=1;" parent="1" vertex="1">
          <mxGeometry x="712" y="120" width="20" height="480" as="geometry" />
        </mxCell>
        <mxCell id="xNPf7Q8VACPQxdcIyB9K-17" value="" style="rounded=0;whiteSpace=wrap;html=1;fillColor=#FFBE73;strokeColor=#000000;shadow=1;" parent="1" vertex="1">
          <mxGeometry x="284" y="215" width="20" height="50" as="geometry" />
        </mxCell>
        <mxCell id="xNPf7Q8VACPQxdcIyB9K-18" value="" style="rounded=0;whiteSpace=wrap;html=1;fillColor=#FFBE73;strokeColor=#000000;shadow=1;" parent="1" vertex="1">
          <mxGeometry x="284" y="295" width="20" height="50" as="geometry" />
        </mxCell>
        <mxCell id="xNPf7Q8VACPQxdcIyB9K-19" value="" style="rounded=0;whiteSpace=wrap;html=1;fillColor=#FFBE73;strokeColor=#000000;shadow=1;" parent="1" vertex="1">
          <mxGeometry x="284" y="375" width="20" height="50" as="geometry" />
        </mxCell>
        <mxCell id="xNPf7Q8VACPQxdcIyB9K-20" value="" style="rounded=0;whiteSpace=wrap;html=1;fillColor=#FFBE73;strokeColor=#000000;shadow=1;" parent="1" vertex="1">
          <mxGeometry x="284" y="455" width="20" height="50" as="geometry" />
        </mxCell>
        <mxCell id="xNPf7Q8VACPQxdcIyB9K-21" value="" style="rounded=0;whiteSpace=wrap;html=1;fillColor=#FFBE73;strokeColor=#000000;shadow=1;" parent="1" vertex="1">
          <mxGeometry x="284" y="535" width="20" height="50" as="geometry" />
        </mxCell>
        <mxCell id="xNPf7Q8VACPQxdcIyB9K-22" value="" style="rounded=0;whiteSpace=wrap;html=1;fillColor=#FFBE73;strokeColor=#000000;shadow=1;" parent="1" vertex="1">
          <mxGeometry x="500" y="135" width="20" height="50" as="geometry" />
        </mxCell>
        <mxCell id="xNPf7Q8VACPQxdcIyB9K-23" value="" style="rounded=0;whiteSpace=wrap;html=1;fillColor=#FFBE73;strokeColor=#000000;shadow=1;" parent="1" vertex="1">
          <mxGeometry x="500" y="215" width="20" height="50" as="geometry" />
        </mxCell>
        <mxCell id="xNPf7Q8VACPQxdcIyB9K-24" value="" style="rounded=0;whiteSpace=wrap;html=1;fillColor=#FFBE73;strokeColor=#000000;shadow=1;" parent="1" vertex="1">
          <mxGeometry x="500" y="295" width="20" height="50" as="geometry" />
        </mxCell>
        <mxCell id="xNPf7Q8VACPQxdcIyB9K-25" value="" style="rounded=0;whiteSpace=wrap;html=1;fillColor=#FFBE73;strokeColor=#000000;shadow=1;" parent="1" vertex="1">
          <mxGeometry x="500" y="375" width="20" height="50" as="geometry" />
        </mxCell>
        <mxCell id="xNPf7Q8VACPQxdcIyB9K-26" value="" style="rounded=0;whiteSpace=wrap;html=1;fillColor=#FFBE73;strokeColor=#000000;shadow=1;" parent="1" vertex="1">
          <mxGeometry x="500" y="455" width="20" height="50" as="geometry" />
        </mxCell>
        <mxCell id="xNPf7Q8VACPQxdcIyB9K-27" value="" style="rounded=0;whiteSpace=wrap;html=1;fillColor=#FFBE73;strokeColor=#000000;shadow=1;" parent="1" vertex="1">
          <mxGeometry x="500" y="535" width="20" height="50" as="geometry" />
        </mxCell>
        <mxCell id="xNPf7Q8VACPQxdcIyB9K-28" value="&lt;div&gt;&lt;font style=&quot;font-size: 24px;&quot; face=&quot;Helvetica&quot; color=&quot;#FFFFFF&quot;&gt;自动驾驶车辆&lt;/font&gt;&lt;/div&gt;" style="rounded=1;whiteSpace=wrap;html=1;strokeColor=#000000;fillColor=#67AB9F;shadow=1;" parent="1" vertex="1">
          <mxGeometry x="340" y="275" width="120" height="140" as="geometry" />
        </mxCell>
        <mxCell id="xNPf7Q8VACPQxdcIyB9K-31" value="" style="strokeWidth=2;html=1;shape=mxgraph.flowchart.annotation_2;align=left;labelPosition=right;pointerEvents=1;fontFamily=Helvetica;fontSize=24;fontColor=#000000;fillColor=#67AB9F;rotation=-90;shadow=1;" parent="1" vertex="1">
          <mxGeometry x="160" y="540" width="50" height="190" as="geometry" />
        </mxCell>
        <mxCell id="xNPf7Q8VACPQxdcIyB9K-32" value="自车左方车道" style="text;html=1;align=center;verticalAlign=middle;resizable=0;points=[];autosize=1;strokeColor=none;fillColor=none;fontSize=24;fontFamily=Helvetica;fontColor=#000000;shadow=1;" parent="1" vertex="1">
          <mxGeometry x="105" y="670" width="160" height="30" as="geometry" />
        </mxCell>
        <mxCell id="xNPf7Q8VACPQxdcIyB9K-34" value="" style="strokeWidth=2;html=1;shape=mxgraph.flowchart.annotation_2;align=left;labelPosition=right;pointerEvents=1;fontFamily=Helvetica;fontSize=24;fontColor=#000000;fillColor=#67AB9F;rotation=-90;shadow=1;" parent="1" vertex="1">
          <mxGeometry x="375" y="540" width="50" height="190" as="geometry" />
        </mxCell>
        <mxCell id="xNPf7Q8VACPQxdcIyB9K-35" value="当前车道" style="text;html=1;align=center;verticalAlign=middle;resizable=0;points=[];autosize=1;strokeColor=none;fillColor=none;fontSize=24;fontFamily=Helvetica;fontColor=#000000;shadow=1;" parent="1" vertex="1">
          <mxGeometry x="345" y="670" width="110" height="30" as="geometry" />
        </mxCell>
        <mxCell id="xNPf7Q8VACPQxdcIyB9K-36" value="" style="strokeWidth=2;html=1;shape=mxgraph.flowchart.annotation_2;align=left;labelPosition=right;pointerEvents=1;fontFamily=Helvetica;fontSize=24;fontColor=#000000;fillColor=#67AB9F;rotation=-90;shadow=1;" parent="1" vertex="1">
          <mxGeometry x="595" y="540" width="50" height="190" as="geometry" />
        </mxCell>
        <mxCell id="xNPf7Q8VACPQxdcIyB9K-37" value="自车右方车道" style="text;html=1;align=center;verticalAlign=middle;resizable=0;points=[];autosize=1;strokeColor=none;fillColor=none;fontSize=24;fontFamily=Helvetica;fontColor=#000000;shadow=1;" parent="1" vertex="1">
          <mxGeometry x="540" y="670" width="160" height="30" as="geometry" />
        </mxCell>
        <mxCell id="xNPf7Q8VACPQxdcIyB9K-41" value="&lt;div&gt;自车&lt;br&gt;&lt;/div&gt;&lt;div&gt;右方车道&lt;/div&gt;&lt;div&gt;前方&lt;/div&gt;" style="rounded=0;whiteSpace=wrap;html=1;fontFamily=Helvetica;fontSize=24;strokeColor=#0e8088;fillColor=#b0e3e6;glass=0;sketch=1;shadow=1;" parent="1" vertex="1">
          <mxGeometry x="520" y="120" width="192" height="240" as="geometry" />
        </mxCell>
        <mxCell id="WP3tY2sm5UUjiyCGl9_4-1" value="&lt;div&gt;自车&lt;br&gt;&lt;/div&gt;&lt;div&gt;右方车道&lt;/div&gt;&lt;div&gt;后方&lt;/div&gt;" style="rounded=0;whiteSpace=wrap;html=1;fontFamily=Helvetica;fontSize=24;strokeColor=#23445d;fillColor=#bac8d3;glass=0;sketch=1;shadow=1;" vertex="1" parent="1">
          <mxGeometry x="520" y="360" width="192" height="240" as="geometry" />
        </mxCell>
        <mxCell id="WP3tY2sm5UUjiyCGl9_4-2" value="&lt;div&gt;自车&lt;br&gt;&lt;/div&gt;&lt;div&gt;左方车道&lt;/div&gt;&lt;div&gt;后方&lt;/div&gt;" style="rounded=0;whiteSpace=wrap;html=1;fontFamily=Helvetica;fontSize=24;strokeColor=#10739e;fillColor=#b1ddf0;glass=0;sketch=1;shadow=1;" vertex="1" parent="1">
          <mxGeometry x="92" y="360" width="192" height="240" as="geometry" />
        </mxCell>
        <mxCell id="WP3tY2sm5UUjiyCGl9_4-3" value="&lt;div&gt;自车&lt;br&gt;&lt;/div&gt;&lt;div&gt;左方车道&lt;/div&gt;&lt;div&gt;前方&lt;/div&gt;" style="rounded=0;whiteSpace=wrap;html=1;fontFamily=Helvetica;fontSize=24;strokeColor=#b46504;fillColor=#fad7ac;glass=0;sketch=1;shadow=1;" vertex="1" parent="1">
          <mxGeometry x="90" y="120" width="192" height="240" as="geometry" />
        </mxCell>
        <mxCell id="WP3tY2sm5UUjiyCGl9_4-4" value="&lt;div&gt;自车&lt;br&gt;&lt;/div&gt;&lt;div&gt;当前车道&lt;/div&gt;&lt;div&gt;前方&lt;/div&gt;" style="rounded=0;whiteSpace=wrap;html=1;fontFamily=Helvetica;fontSize=24;strokeColor=#ae4132;fillColor=#fad9d5;glass=0;sketch=1;shadow=1;" vertex="1" parent="1">
          <mxGeometry x="304" y="120" width="192" height="150" as="geometry" />
        </mxCell>
        <mxCell id="WP3tY2sm5UUjiyCGl9_4-5" value="&lt;div&gt;自车&lt;br&gt;&lt;/div&gt;&lt;div&gt;当前车道&lt;/div&gt;&lt;div&gt;后方&lt;/div&gt;" style="rounded=0;whiteSpace=wrap;html=1;fontFamily=Helvetica;fontSize=24;strokeColor=#56517e;fillColor=#d0cee2;glass=0;sketch=1;shadow=1;" vertex="1" parent="1">
          <mxGeometry x="304" y="415" width="192" height="185" as="geometry" />
        </mxCell>
        <mxCell id="WP3tY2sm5UUjiyCGl9_4-6" value="" style="strokeWidth=2;html=1;shape=mxgraph.flowchart.annotation_2;align=left;labelPosition=right;pointerEvents=1;fontFamily=Helvetica;fontSize=24;fontColor=#000000;fillColor=#67AB9F;rotation=0;shadow=1;" vertex="1" parent="1">
          <mxGeometry y="120" width="50" height="240" as="geometry" />
        </mxCell>
        <mxCell id="WP3tY2sm5UUjiyCGl9_4-7" value="" style="strokeWidth=2;html=1;shape=mxgraph.flowchart.annotation_2;align=left;labelPosition=right;pointerEvents=1;fontFamily=Helvetica;fontSize=24;fontColor=#000000;fillColor=#67AB9F;rotation=0;shadow=1;" vertex="1" parent="1">
          <mxGeometry y="360" width="50" height="240" as="geometry" />
        </mxCell>
        <mxCell id="WP3tY2sm5UUjiyCGl9_4-8" value="&lt;div&gt;自&lt;/div&gt;&lt;div&gt;车&lt;/div&gt;&lt;div&gt;后&lt;/div&gt;&lt;div&gt;方&lt;/div&gt;" style="text;html=1;align=center;verticalAlign=middle;resizable=0;points=[];autosize=1;strokeColor=none;fillColor=none;fontSize=24;fontFamily=Helvetica;fontColor=#000000;shadow=1;" vertex="1" parent="1">
          <mxGeometry x="-50" y="420" width="40" height="120" as="geometry" />
        </mxCell>
        <mxCell id="WP3tY2sm5UUjiyCGl9_4-9" value="&lt;div&gt;自&lt;/div&gt;&lt;div&gt;车&lt;/div&gt;&lt;div&gt;前&lt;br&gt;&lt;/div&gt;&lt;div&gt;方&lt;/div&gt;" style="text;html=1;align=center;verticalAlign=middle;resizable=0;points=[];autosize=1;strokeColor=none;fillColor=none;fontSize=24;fontFamily=Helvetica;fontColor=#000000;shadow=1;" vertex="1" parent="1">
          <mxGeometry x="-50" y="180" width="40" height="120" as="geometry" />
        </mxCell>
      </root>
    </mxGraphModel>
  </diagram>
</mxfile>
